<svg width="128" height="22" viewBox="0 0 128 22" fill="none" xmlns="http://www.w3.org/2000/svg">
<path d="M21.5597 18.2045C20.6136 18.2045 19.7976 17.9957 19.1115 17.5781C18.4297 17.1562 17.9034 16.5682 17.5327 15.8139C17.1662 15.0554 16.983 14.1733 16.983 13.1676C16.983 12.1619 17.1662 11.2756 17.5327 10.5085C17.9034 9.73722 18.419 9.13636 19.0795 8.70597C19.7443 8.27131 20.5199 8.05398 21.4062 8.05398C21.9176 8.05398 22.4226 8.1392 22.9212 8.30966C23.4197 8.48011 23.8736 8.7571 24.2827 9.14062C24.6918 9.51989 25.0178 10.0227 25.2607 10.6491C25.5036 11.2756 25.625 12.0469 25.625 12.9631V13.6023H18.0568V12.2983H24.0909C24.0909 11.7443 23.9801 11.25 23.7585 10.8153C23.5412 10.3807 23.2301 10.0376 22.8253 9.78622C22.4247 9.5348 21.9517 9.40909 21.4062 9.40909C20.8054 9.40909 20.2855 9.55824 19.8466 9.85653C19.4119 10.1506 19.0774 10.5341 18.843 11.0071C18.6087 11.4801 18.4915 11.9872 18.4915 12.5284V13.3977C18.4915 14.1392 18.6193 14.7678 18.875 15.2834C19.1349 15.7947 19.495 16.1847 19.9553 16.4531C20.4155 16.7173 20.9503 16.8494 21.5597 16.8494C21.956 16.8494 22.3139 16.794 22.6335 16.6832C22.9574 16.5682 23.2365 16.3977 23.4709 16.1719C23.7053 15.9418 23.8864 15.6562 24.0142 15.3153L25.4716 15.7244C25.3182 16.2188 25.0604 16.6534 24.6982 17.0284C24.3359 17.3991 23.8885 17.6889 23.3558 17.8977C22.8232 18.1023 22.2244 18.2045 21.5597 18.2045ZM29.4283 12.0938V18H27.9197V8.18182H29.3771V9.71591H29.505C29.7351 9.21733 30.0845 8.81676 30.5533 8.5142C31.022 8.20739 31.6271 8.05398 32.3686 8.05398C33.0334 8.05398 33.6151 8.19034 34.1136 8.46307C34.6122 8.73153 35 9.14062 35.277 9.69034C35.554 10.2358 35.6925 10.9261 35.6925 11.7614V18H34.1839V11.8636C34.1839 11.0923 33.9837 10.4915 33.5831 10.0611C33.1825 9.62642 32.6328 9.40909 31.9339 9.40909C31.4524 9.40909 31.022 9.51349 30.6428 9.7223C30.2678 9.93111 29.9716 10.2358 29.7543 10.6364C29.5369 11.0369 29.4283 11.5227 29.4283 12.0938ZM38.449 18V8.18182H39.9576V18H38.449ZM39.2161 6.54545C38.9221 6.54545 38.6685 6.44531 38.4554 6.24503C38.2466 6.04474 38.1422 5.80398 38.1422 5.52273C38.1422 5.24148 38.2466 5.00071 38.4554 4.80043C38.6685 4.60014 38.9221 4.5 39.2161 4.5C39.5101 4.5 39.7615 4.60014 39.9703 4.80043C40.1834 5.00071 40.29 5.24148 40.29 5.52273C40.29 5.80398 40.1834 6.04474 39.9703 6.24503C39.7615 6.44531 39.5101 6.54545 39.2161 6.54545ZM49.6751 10.3807L48.32 10.7642C48.2347 10.5384 48.109 10.3189 47.9428 10.1058C47.7809 9.88849 47.5593 9.70952 47.2781 9.56889C46.9968 9.42827 46.6367 9.35795 46.1978 9.35795C45.5969 9.35795 45.0962 9.49645 44.6957 9.77344C44.2994 10.0462 44.1012 10.3935 44.1012 10.8153C44.1012 11.1903 44.2376 11.4865 44.5103 11.7038C44.783 11.9212 45.2092 12.1023 45.7887 12.2472L47.2461 12.6051C48.1239 12.8182 48.7781 13.1442 49.2085 13.5831C49.6388 14.0178 49.854 14.5781 49.854 15.2642C49.854 15.8267 49.6921 16.3295 49.3683 16.7727C49.0487 17.2159 48.6012 17.5653 48.0259 17.821C47.4506 18.0767 46.7816 18.2045 46.0188 18.2045C45.0174 18.2045 44.1886 17.9872 43.5323 17.5526C42.8761 17.1179 42.4606 16.483 42.2859 15.6477L43.7177 15.2898C43.854 15.8182 44.1119 16.2145 44.4911 16.4787C44.8746 16.7429 45.3754 16.875 45.9933 16.875C46.6964 16.875 47.2546 16.7259 47.668 16.4276C48.0856 16.125 48.2944 15.7628 48.2944 15.3409C48.2944 15 48.1751 14.7145 47.9364 14.4844C47.6978 14.25 47.3313 14.0753 46.837 13.9602L45.2006 13.5767C44.3015 13.3636 43.641 13.0334 43.2191 12.5859C42.8015 12.1342 42.5927 11.5696 42.5927 10.892C42.5927 10.3381 42.7482 9.84801 43.0593 9.42188C43.3746 8.99574 43.8029 8.66122 44.3441 8.41832C44.8896 8.17543 45.5075 8.05398 46.1978 8.05398C47.1694 8.05398 47.9322 8.26705 48.4862 8.69318C49.0444 9.11932 49.4407 9.68182 49.6751 10.3807ZM53.2243 18.1023C52.9089 18.1023 52.6383 17.9893 52.4125 17.7635C52.1866 17.5376 52.0737 17.267 52.0737 16.9517C52.0737 16.6364 52.1866 16.3658 52.4125 16.1399C52.6383 15.9141 52.9089 15.8011 53.2243 15.8011C53.5396 15.8011 53.8102 15.9141 54.036 16.1399C54.2619 16.3658 54.3748 16.6364 54.3748 16.9517C54.3748 17.1605 54.3216 17.3523 54.215 17.527C54.1127 17.7017 53.9743 17.8423 53.7995 17.9489C53.6291 18.0511 53.4373 18.1023 53.2243 18.1023ZM57.2864 18V4.90909H58.7949V9.74148H58.9228C59.0336 9.57102 59.187 9.35369 59.383 9.08949C59.5833 8.82102 59.8688 8.58239 60.2395 8.37358C60.6145 8.16051 61.1216 8.05398 61.7608 8.05398C62.5875 8.05398 63.3162 8.26065 63.9469 8.67401C64.5776 9.08736 65.0698 9.6733 65.4235 10.4318C65.7772 11.1903 65.954 12.0852 65.954 13.1165C65.954 14.1562 65.7772 15.0575 65.4235 15.8203C65.0698 16.5788 64.5797 17.1669 63.9533 17.5845C63.3269 17.9979 62.6046 18.2045 61.7864 18.2045C61.1557 18.2045 60.6507 18.1001 60.2715 17.8913C59.8922 17.6783 59.6003 17.4375 59.3958 17.169C59.1912 16.8963 59.0336 16.6705 58.9228 16.4915H58.7438V18H57.2864ZM58.7694 13.0909C58.7694 13.8324 58.878 14.4865 59.0953 15.0533C59.3127 15.6158 59.6301 16.0568 60.0478 16.3764C60.4654 16.6918 60.9767 16.8494 61.5819 16.8494C62.2125 16.8494 62.7388 16.6832 63.1607 16.3509C63.5868 16.0142 63.9064 15.5625 64.1195 14.9957C64.3368 14.4247 64.4455 13.7898 64.4455 13.0909C64.4455 12.4006 64.339 11.7784 64.1259 11.2244C63.9171 10.6662 63.5996 10.2251 63.1735 9.90128C62.7516 9.57315 62.2211 9.40909 61.5819 9.40909C60.9682 9.40909 60.4526 9.56463 60.035 9.87571C59.6174 10.1825 59.302 10.6129 59.089 11.1669C58.8759 11.7166 58.7694 12.358 58.7694 13.0909ZM69.7701 4.90909V18H68.2615V4.90909H69.7701ZM76.5217 18.2045C75.6353 18.2045 74.8576 17.9936 74.1886 17.5717C73.5238 17.1499 73.0039 16.5597 72.6289 15.8011C72.2582 15.0426 72.0728 14.1562 72.0728 13.142C72.0728 12.1193 72.2582 11.2266 72.6289 10.4638C73.0039 9.70099 73.5238 9.10866 74.1886 8.68679C74.8576 8.26491 75.6353 8.05398 76.5217 8.05398C77.408 8.05398 78.1836 8.26491 78.8484 8.68679C79.5174 9.10866 80.0373 9.70099 80.408 10.4638C80.783 11.2266 80.9705 12.1193 80.9705 13.142C80.9705 14.1562 80.783 15.0426 80.408 15.8011C80.0373 16.5597 79.5174 17.1499 78.8484 17.5717C78.1836 17.9936 77.408 18.2045 76.5217 18.2045ZM76.5217 16.8494C77.195 16.8494 77.7489 16.6768 78.1836 16.3317C78.6183 15.9865 78.94 15.5327 79.1488 14.9702C79.3576 14.4077 79.462 13.7983 79.462 13.142C79.462 12.4858 79.3576 11.8743 79.1488 11.3075C78.94 10.7408 78.6183 10.2827 78.1836 9.93324C77.7489 9.58381 77.195 9.40909 76.5217 9.40909C75.8484 9.40909 75.2944 9.58381 74.8597 9.93324C74.4251 10.2827 74.1033 10.7408 73.8945 11.3075C73.6857 11.8743 73.5813 12.4858 73.5813 13.142C73.5813 13.7983 73.6857 14.4077 73.8945 14.9702C74.1033 15.5327 74.4251 15.9865 74.8597 16.3317C75.2944 16.6768 75.8484 16.8494 76.5217 16.8494ZM87.2363 21.8864C86.5076 21.8864 85.8812 21.7926 85.3571 21.6051C84.8329 21.4219 84.3961 21.179 84.0467 20.8764C83.7015 20.5781 83.4267 20.2585 83.2221 19.9176L84.4238 19.0739C84.5602 19.2528 84.7328 19.4574 84.9416 19.6875C85.1504 19.9219 85.4359 20.1243 85.7981 20.2947C86.1646 20.4695 86.644 20.5568 87.2363 20.5568C88.0289 20.5568 88.6831 20.3651 89.1987 19.9815C89.7143 19.598 89.9721 18.9972 89.9721 18.179V16.1847H89.8443C89.7335 16.3636 89.5758 16.5852 89.3713 16.8494C89.171 17.1094 88.8812 17.3416 88.502 17.5462C88.127 17.7464 87.6199 17.8466 86.9806 17.8466C86.188 17.8466 85.4764 17.6591 84.8457 17.2841C84.2193 16.9091 83.7228 16.3636 83.3564 15.6477C82.9941 14.9318 82.813 14.0625 82.813 13.0398C82.813 12.0341 82.9899 11.1584 83.3436 10.4126C83.6973 9.66264 84.1895 9.0831 84.8201 8.67401C85.4508 8.26065 86.1795 8.05398 87.0062 8.05398C87.6454 8.05398 88.1525 8.16051 88.5275 8.37358C88.9068 8.58239 89.1966 8.82102 89.3968 9.08949C89.6014 9.35369 89.7591 9.57102 89.8699 9.74148H90.0233V8.18182H91.4806V18.2812C91.4806 19.125 91.2889 19.8111 90.9054 20.3395C90.5261 20.8722 90.0147 21.2621 89.3713 21.5092C88.7321 21.7607 88.0204 21.8864 87.2363 21.8864ZM87.1852 16.4915C87.7903 16.4915 88.3017 16.353 88.7193 16.076C89.1369 15.799 89.4544 15.4006 89.6717 14.8807C89.889 14.3608 89.9977 13.7386 89.9977 13.0142C89.9977 12.3068 89.8912 11.6825 89.6781 11.1413C89.465 10.6001 89.1497 10.1761 88.7321 9.86932C88.3145 9.5625 87.7988 9.40909 87.1852 9.40909C86.546 9.40909 86.0133 9.57102 85.5872 9.89489C85.1653 10.2187 84.8478 10.6534 84.6348 11.1989C84.426 11.7443 84.3216 12.3494 84.3216 13.0142C84.3216 13.696 84.4281 14.299 84.6412 14.8232C84.8585 15.343 85.1781 15.7521 85.6 16.0504C86.0261 16.3445 86.5545 16.4915 87.1852 16.4915Z" fill="white"/>
<mask id="path-2-inside-1_23_2" fill="white">
<path d="M8.34029 0.0470615C9.34682 0.0524411 10.3423 0.289305 11.2698 0.744131C12.1973 1.19896 13.0387 1.86284 13.746 2.69787C14.4532 3.53289 15.0125 4.52272 15.3919 5.61082C15.7713 6.69893 15.9633 7.86401 15.957 9.03954C15.9508 10.2151 15.7463 11.378 15.3553 12.462C14.9643 13.546 14.3945 14.5298 13.6783 15.3572C12.9621 16.1846 12.1137 16.8395 11.1814 17.2844C10.249 17.7293 9.25113 17.9555 8.24461 17.9501L8.29245 8.99857L8.34029 0.0470615Z"/>
</mask>
<path d="M8.34029 0.0470615C9.34682 0.0524411 10.3423 0.289305 11.2698 0.744131C12.1973 1.19896 13.0387 1.86284 13.746 2.69787C14.4532 3.53289 15.0125 4.52272 15.3919 5.61082C15.7713 6.69893 15.9633 7.86401 15.957 9.03954C15.9508 10.2151 15.7463 11.378 15.3553 12.462C14.9643 13.546 14.3945 14.5298 13.6783 15.3572C12.9621 16.1846 12.1137 16.8395 11.1814 17.2844C10.249 17.7293 9.25113 17.9555 8.24461 17.9501L8.29245 8.99857L8.34029 0.0470615Z" fill="#23954D" stroke="white" stroke-width="4" mask="url(#path-2-inside-1_23_2)"/>
<rect x="5" width="2" height="18" fill="white"/>
</svg>
